<svg width="54" height="74" viewBox="0 0 54 74" fill="none" xmlns="http://www.w3.org/2000/svg">
<path d="M38.8464 43.1584C38.6604 43.0608 38.4541 43.0694 38.2726 43.1823C38.0912 43.2951 37.9497 43.5029 37.879 43.7601C37.294 45.8917 36.5678 48.1592 35.5824 50.0471C35.4946 49.0748 35.3269 48.1118 35.1922 47.3396C35.1411 47.0462 35.0927 46.7688 35.0773 46.6375C35.0109 46.0721 34.6252 45.6888 34.2166 45.7798C34.0203 45.824 33.8446 45.9741 33.7283 46.1974C33.612 46.4206 33.5646 46.6985 33.5964 46.9701C33.6209 47.179 33.6709 47.4644 33.7338 47.8261C33.8704 48.6094 34.077 49.7934 34.1278 50.8338C34.1824 51.9504 34.031 52.3949 33.933 52.4816C33.8863 52.523 33.8432 52.5714 33.8043 52.626C32.9327 53.5375 31.9143 54.1517 30.7127 54.3092V38.5004C30.7127 36.1855 29.3554 34.3063 27.6808 34.3063C26.0062 34.3063 24.6489 36.1855 24.6489 38.5004V66.2018C24.6489 68.5167 30.7127 68.5167 30.7127 66.2018V56.3914C32.3578 56.2202 33.7146 55.3711 34.8419 54.1315C34.8705 54.1018 34.8981 54.0711 34.9249 54.0393C37.0904 51.597 38.3986 47.7139 39.2816 44.4964C39.3166 44.369 39.3331 44.2333 39.3301 44.0972C39.3272 43.961 39.3048 43.8269 39.2644 43.7027C39.224 43.5784 39.1663 43.4664 39.0946 43.373C39.0229 43.2796 38.9385 43.2067 38.8464 43.1584Z" fill="#8E6049"/>
<path d="M44.6336 29.5161C44.2876 29.2178 43.9128 28.9456 43.5131 28.7026C43.7954 28.52 44.0623 28.3203 44.3118 28.1049C47.2008 25.607 47.2008 21.5572 44.3118 19.0592C41.4353 16.5721 36.7801 16.5623 33.8881 19.0277C33.6493 18.0689 33.095 17.1903 32.2919 16.4976C29.9825 14.5008 26.2382 14.5008 23.9286 16.4976C23.6052 16.7776 23.3204 17.089 23.0798 17.4256C20.0811 16.1544 16.357 16.5949 13.8636 18.7508C10.9821 21.2422 10.7495 25.1545 13.1613 27.8776C11.4493 28.0618 9.79233 28.7201 8.47791 29.8567C5.3407 32.5692 5.3407 36.967 8.47791 39.6794C10.0658 41.0524 12.1531 41.7291 14.2341 41.7123C13.8693 43.0919 14.3071 44.5981 15.5499 45.6727C17.4715 47.3342 20.5868 47.3342 22.5084 45.6727C22.7697 45.4467 23.0007 45.1958 23.197 44.9249C23.2259 44.9508 23.2533 44.9775 23.2829 45.0031C26.3623 47.6656 31.3549 47.6656 34.4343 45.0031C35.4822 44.0971 36.1726 42.9993 36.5073 41.8406C39.3213 42.4617 42.4309 41.8215 44.6335 39.9171C47.9555 37.0449 47.9555 32.3882 44.6336 29.5161Z" fill="#2BA52E"/>
<path d="M26.4092 54.0798C26.3012 54.0798 26.1944 54.0474 26.0962 53.9848C22.4982 51.6964 17.7565 47.8079 18.1184 40.4933C18.1353 40.2224 18.2285 39.9715 18.3779 39.7946C18.5272 39.6177 18.7208 39.529 18.917 39.5476C19.1132 39.5661 19.2963 39.6905 19.4268 39.8938C19.5574 40.0972 19.625 40.3633 19.6151 40.6349C19.3199 46.602 23.2587 49.8964 26.7231 52.0997C26.8787 52.1985 27.0051 52.3679 27.0815 52.5798C27.1578 52.7917 27.1795 53.0333 27.1428 53.2646C27.1062 53.4958 27.0134 53.7028 26.88 53.8511C26.7465 53.9994 26.5804 54.0801 26.4092 54.0798Z" fill="#8E6049"/>
</svg>
