<svg width="70" height="71" viewBox="0 0 70 71" fill="none" xmlns="http://www.w3.org/2000/svg">
<path d="M59.75 10.6907C59.5146 10.4553 59.1954 10.3231 58.8625 10.3231C58.5296 10.3231 58.2104 10.4553 57.975 10.6907C57.7396 10.9261 57.6074 11.2453 57.6074 11.5782C57.6074 11.9111 57.7396 12.2303 57.975 12.4657C59.6917 14.1768 61.2097 16.0764 62.5 18.1282L58.175 20.6282C57.0968 18.951 55.8394 17.396 54.425 15.9907C54.3088 15.8736 54.1705 15.7806 54.0182 15.7171C53.8659 15.6536 53.7025 15.621 53.5375 15.621C53.3725 15.621 53.2091 15.6536 53.0568 15.7171C52.9045 15.7806 52.7662 15.8736 52.65 15.9907L48.225 20.4407C45.9138 18.3965 43.1595 16.917 40.1791 16.1187C37.1986 15.3205 34.0735 15.2253 31.05 15.8407L29.7375 11.0032C35.799 9.69135 42.1318 10.6852 47.5 13.7907C47.6427 13.8734 47.8003 13.927 47.9637 13.9485C48.1272 13.9699 48.2933 13.9589 48.4525 13.9159C48.6117 13.8729 48.7608 13.7988 48.8912 13.698C49.0216 13.5971 49.1308 13.4715 49.2125 13.3282C53.0875 6.69072 53.1875 6.69072 53.0875 6.05322C52.7625 3.65322 34.1 -4.55928 17.5 5.14072C17.2141 5.30562 17.005 5.57691 16.9183 5.89539C16.8317 6.21387 16.8745 6.5537 17.0375 6.84072C21.1 13.8532 20.9125 13.9532 21.875 13.9532C22.0948 13.9541 22.311 13.897 22.5017 13.7876C22.6925 13.6783 22.851 13.5205 22.9613 13.3304C23.0716 13.1402 23.1298 12.9243 23.13 12.7045C23.1302 12.4846 23.0724 12.2686 22.9625 12.0782L19.85 6.69072C24.5181 4.22137 29.719 2.93051 35 2.93051C40.281 2.93051 45.4819 4.22137 50.15 6.69072L47.65 11.0157C39.8625 6.96572 26.7375 7.17822 26.975 10.1657C26.975 10.5157 26.725 9.39072 28.625 16.4157C26.0945 17.2836 23.7648 18.6525 21.775 20.4407L12.025 10.6907C11.9088 10.5736 11.7705 10.4806 11.6182 10.4171C11.4659 10.3536 11.3025 10.321 11.1375 10.321C10.9725 10.321 10.8091 10.3536 10.6568 10.4171C10.5045 10.4806 10.3662 10.5736 10.25 10.6907C7.00003 13.941 4.42209 17.7996 2.66339 22.0463C0.904691 26.2929 -0.000331544 30.8443 9.11097e-08 35.4407C9.11097e-08 35.7722 0.131696 36.0902 0.366117 36.3246C0.600537 36.559 0.91848 36.6907 1.25 36.6907C3.4875 36.6907 1.625 34.3782 3.6125 27.0282C4.95356 21.9313 7.52943 17.2432 11.1125 13.3782L20 22.2157C17.371 25.1967 15.6898 28.8935 15.1711 32.8342C14.6523 36.775 15.3195 40.7809 17.0875 44.3407L11.6375 47.4782C11.3491 47.644 11.1383 47.9175 11.0516 48.2387C10.9648 48.5598 11.0092 48.9023 11.175 49.1907C11.3408 49.4791 11.6143 49.6899 11.9355 49.7766C12.2566 49.8634 12.5991 49.819 12.8875 49.6532L18.3375 46.5032C20.798 50.2024 24.4161 52.9808 28.625 54.4032C26.8875 60.8532 26.775 60.8282 27.1125 61.4282C27.2985 61.6994 27.5653 61.905 27.875 62.0157C29.7953 62.53 31.7646 62.8401 33.75 62.9407V67.9407C25.9983 67.6746 18.6051 64.6107 12.9375 59.3157L16.4625 55.7782C17.4625 56.6907 20.875 59.4657 21.875 59.4657C22.1518 59.4677 22.4214 59.3777 22.6415 59.2099C22.8616 59.0421 23.0198 58.806 23.0913 58.5386C23.1628 58.2712 23.1435 57.9877 23.0365 57.7324C22.9295 57.4772 22.7408 57.2647 22.5 57.1282C20.6047 56.041 18.8641 54.7041 17.325 53.1532C17.2088 53.0361 17.0705 52.9431 16.9182 52.8796C16.7659 52.8161 16.6025 52.7835 16.4375 52.7835C16.2725 52.7835 16.1091 52.8161 15.9568 52.8796C15.8045 52.9431 15.6662 53.0361 15.55 53.1532L11.1625 57.5407C7.83717 53.9781 5.37018 49.7026 3.95 45.0407C11.025 43.1532 9.8375 43.4907 10.2 43.3407C12.55 42.2282 6.625 34.5907 13.375 22.9282C13.5244 22.6425 13.5577 22.3102 13.4679 22.0005C13.3781 21.6909 13.1721 21.4279 12.893 21.2666C12.6138 21.1053 12.2832 21.058 11.97 21.1347C11.6569 21.2114 11.3855 21.4061 11.2125 21.6782C7.84118 27.5252 6.73782 34.4079 8.1125 41.0157C8.2125 41.4657 8.825 41.1657 2.1125 42.9532C1.91652 43.009 1.73938 43.1171 1.6 43.2657C1.42842 43.4193 1.3026 43.6173 1.23642 43.8379C1.17025 44.0585 1.1663 44.293 1.225 44.5157C3.22072 51.9495 7.61126 58.5181 13.717 63.2047C19.8227 67.8913 27.303 70.4346 35 70.4407C35.3315 70.4407 35.6495 70.309 35.8839 70.0746C36.1183 69.8402 36.25 69.5222 36.25 69.1907V61.6907C36.25 61.3592 36.1183 61.0413 35.8839 60.8068C35.6495 60.5724 35.3315 60.4407 35 60.4407C33.2312 60.4342 31.4677 60.2457 29.7375 59.8782L31.05 55.0407C35.4019 55.9201 39.9227 55.3264 43.9 53.3532L47.0375 58.8032C47.1196 58.946 47.229 59.0713 47.3595 59.1718C47.4899 59.2723 47.6389 59.3462 47.798 59.3891C47.957 59.4321 48.1229 59.4433 48.2863 59.4221C48.4496 59.4009 48.6072 59.3478 48.75 59.2657C48.8928 59.1836 49.0181 59.0742 49.1186 58.9438C49.2191 58.8133 49.293 58.6643 49.3359 58.5053C49.3789 58.3462 49.3901 58.1803 49.3689 58.017C49.3477 57.8536 49.2946 57.696 49.2125 57.5532L46.0625 52.1032C50.1188 49.403 53.0553 45.3203 54.325 40.6157C54.4112 40.2941 54.3661 39.9515 54.1997 39.6632C54.0332 39.3748 53.7591 39.1644 53.4375 39.0782C53.1159 38.992 52.7733 39.0371 52.4849 39.2035C52.1966 39.37 51.9862 39.6441 51.9 39.9657C50.6988 44.4472 47.7671 48.2682 43.7495 50.5888C39.7318 52.9094 34.9571 53.5395 30.475 52.3407C14.3 46.9532 13.625 27.5907 26.25 20.2782C36.7 14.2157 49.625 20.6657 51.9 30.9157C51.9421 31.0753 52.0153 31.225 52.1155 31.3562C52.2157 31.4873 52.3409 31.5973 52.4838 31.6798C52.6268 31.7623 52.7846 31.8157 52.9483 31.8369C53.112 31.8581 53.2783 31.8466 53.4375 31.8032C53.5625 31.8032 52.5125 32.0407 59.4375 30.1907C59.8057 31.9166 59.9942 33.676 60 35.4407C60 35.7722 60.1317 36.0902 60.3661 36.3246C60.6005 36.559 60.9185 36.6907 61.25 36.6907C61.5815 36.6907 61.8995 36.559 62.1339 36.3246C62.3683 36.0902 62.5 35.7722 62.5 35.4407C62.4993 33.0358 62.1884 30.6411 61.575 28.3157C61.5333 28.152 61.4588 27.9984 61.3561 27.8642C61.2534 27.73 61.1245 27.6181 60.9773 27.5351C60.8301 27.4522 60.6676 27.3999 60.4996 27.3816C60.3316 27.3632 60.1617 27.3791 60 27.4282L53.9625 29.0657C53.1111 26.5413 51.7639 24.2123 50 22.2157L53.5375 18.6782C58.75 24.3782 55 25.3407 63.75 20.2907C66.8947 26.2353 68.1124 33.0108 67.2345 39.6784C66.3565 46.346 63.4263 52.5753 58.85 57.5032L55.3125 53.9782C58.2812 50.7305 60.4248 46.8162 61.5625 42.5657C61.6487 42.2441 61.6036 41.9015 61.4372 41.6132C61.2707 41.3248 60.9966 41.1144 60.675 41.0282C60.3534 40.942 60.0108 40.9871 59.7224 41.1535C59.4341 41.32 59.2237 41.5941 59.1375 41.9157C56.5 51.8282 50.7375 52.9407 52.675 54.8907L57.0625 59.2782C53.4997 62.6005 49.2239 65.0633 44.5625 66.4782L43.0125 60.4407C42.9263 60.1191 42.7159 59.845 42.4276 59.6785C42.1392 59.5121 41.7966 59.467 41.475 59.5532C41.1534 59.6394 40.8793 59.8498 40.7128 60.1382C40.5464 60.4265 40.5013 60.7691 40.5875 61.0907C40.5875 61.2157 42.4625 68.2032 42.525 68.3282C42.5671 68.4878 42.6403 68.6375 42.7405 68.7687C42.8407 68.8998 42.9659 69.0098 43.1088 69.0923C43.2518 69.1748 43.4096 69.2282 43.5733 69.2494C43.737 69.2706 43.9033 69.2591 44.0625 69.2157C47.0122 68.4293 49.8481 67.2655 52.5 65.7532C57.1499 63.0691 61.12 59.3513 64.1031 54.8873C67.0861 50.4233 69.0022 45.3328 69.7031 40.0098C70.404 34.6867 69.8709 29.2738 68.145 24.1898C66.4191 19.1058 63.5467 14.487 59.75 10.6907Z" fill="#336940"/>
</svg>
